<?xml version="1.0" encoding="utf-8"?>
<!-- Generator: Adobe Illustrator 20.1.0, SVG Export Plug-In . SVG Version: 6.00 Build 0)  -->
<svg version="1.1" id="Layer_1" xmlns="http://www.w3.org/2000/svg" xmlns:xlink="http://www.w3.org/1999/xlink" x="0px" y="0px"
	 viewBox="0 50 300 180" style="enable-background:new 0 0 300 300;" xml:space="preserve">
<style type="text/css">
	.st0{fill:#CCCDCC;}
	.st1{fill:#EBECEC;}
	.st2{fill:#BBBBBB;}
	.st3{fill:#68AEE0;}
	.st4{fill-rule:evenodd;clip-rule:evenodd;fill:#9D9C9C;}
	.st5{fill-rule:evenodd;clip-rule:evenodd;fill:#E6EAEB;}
	.st6{fill-rule:evenodd;clip-rule:evenodd;fill:#2F3E4D;}
	.st7{fill-rule:evenodd;clip-rule:evenodd;fill:#3D576F;}
	.st8{fill-rule:evenodd;clip-rule:evenodd;fill:#FDCB0B;}
	.st9{fill-rule:evenodd;clip-rule:evenodd;fill:#C93F3F;}
	.st10{fill-rule:evenodd;clip-rule:evenodd;fill:#F79400;}
	.st11{fill-rule:evenodd;clip-rule:evenodd;fill:#00A2E0;}
	.st12{fill-rule:evenodd;clip-rule:evenodd;fill:#7B8C92;}
	.st13{fill-rule:evenodd;clip-rule:evenodd;fill:#E8B12D;}
	.st14{fill-rule:evenodd;clip-rule:evenodd;fill:#D49D1F;}
	.st15{fill-rule:evenodd;clip-rule:evenodd;fill:#F9C23D;}
	.st16{fill-rule:evenodd;clip-rule:evenodd;fill:#475458;}
	.st17{fill-rule:evenodd;clip-rule:evenodd;fill:#9FAEB1;}
	.st18{fill-rule:evenodd;clip-rule:evenodd;fill:#32383A;}
	.st19{fill-rule:evenodd;clip-rule:evenodd;fill:#0D8FB3;}
	.st20{fill-rule:evenodd;clip-rule:evenodd;fill:#0A7796;}
	.st21{fill-rule:evenodd;clip-rule:evenodd;fill:#1699BF;}
	.st22{fill-rule:evenodd;clip-rule:evenodd;fill:#BFC8CA;}
</style>
<g>
	<g>
		<path class="st0" d="M134.4,70.8L31.7,130.1c-1.6,1-3,3.3-3,5.2v74.4c0,0.9,0.3,1.6,0.8,1.9c0.5,0.4,3.4,1.9,3.4,1.9l98.4-63.2
			c1.6-1,3-3.3,3-5.2l5.3-72.7c0,0-2.6-1.6-3.2-1.9C135.8,70.3,135.1,70.4,134.4,70.8z"/>
		<path class="st0" d="M98.3,181.4l-29.1,14.9c0,0,0,3.3,0,3.8c0,0.5,0.3,0.9,0.9,1.2l4.8,2.8c1.2,0.7,3.2,0.7,4.5,0l28.2-16.3
			c0.6-0.4,0.9-0.8,0.9-1.3c0-0.5,0-3.6,0-3.6l-5.7-1.5C101.5,180.7,99.5,180.7,98.3,181.4z"/>
		<path class="st1" d="M107.5,181.4l-4.8-2.8c-1.2-0.7-3.2-0.7-4.5,0L70,194.9c-1.2,0.7-1.2,1.9,0,2.6l4.8,2.8
			c1.2,0.7,3.2,0.7,4.5,0l28.2-16.3C108.7,183.3,108.7,182.1,107.5,181.4z"/>
		<polygon class="st0" points="86.3,193 93.1,189 93.1,166.9 86.3,170.9 		"/>
		<polygon class="st2" points="81.9,190.5 86.3,193 86.3,170.9 81.9,168.4 		"/>
		<g>
			<path class="st3" d="M137.5,75.6L34.8,134.9c-0.2,0.1-0.4,0.4-0.4,0.6v74.4c0,0.2,0.2,0.3,0.4,0.2l102.7-59.3
				c0.2-0.1,0.4-0.4,0.4-0.6V75.8C137.9,75.6,137.7,75.5,137.5,75.6z"/>
			<path class="st1" d="M137.5,72.6L34.8,131.9c-1.6,1-3,3.3-3,5.2v74.4c0,1.9,1.3,2.7,3,1.7l102.7-59.3c1.6-1,3-3.3,3-5.2V74.3
				C140.5,72.4,139.2,71.7,137.5,72.6z M135.3,149.1L37,205.9v-69.2l98.2-56.7V149.1z"/>
		</g>
	</g>
	<g>
		<g>
			<polygon class="st4" points="206.8,156.7 212.9,153.2 213.4,152.8 213.8,152.2 214,151.5 214.1,150.5 214.1,115.1 208,118.5
				208.1,154 208,154.9 207.7,155.7 207.3,156.3 			"/>
			<polygon class="st5" points="208,118.5 214.1,115.1 162.4,85.2 156.3,88.7 			"/>
			<polygon class="st6" points="208,118.5 214.1,115.1 214.1,103.6 214,103.1 214,102.5 213.9,102 213.7,101.5 213.6,101
				213.3,100.4 213.1,99.9 212.8,99.4 212.5,98.9 212.2,98.5 211.9,98 211.5,97.6 211.1,97.2 210.7,96.9 210.3,96.6 209.9,96.3
				166.6,71.3 165.7,70.9 164.9,70.8 164.2,70.8 163.6,71 157.6,74.5 158.2,74.3 158.9,74.2 159.7,74.4 160.5,74.8 203.8,99.8
				204.3,100.1 204.7,100.4 205.1,100.7 205.5,101.1 205.8,101.5 206.2,102 206.5,102.4 206.8,102.9 207.1,103.4 207.3,103.9
				207.5,104.4 207.7,105 207.8,105.5 207.9,106 208,106.5 208,107 			"/>
		</g>
		<g>
			<path class="st7" d="M203.8,99.8l-43.3-25c-2.3-1.3-4.2-0.2-4.2,2.4l0,11.5l51.7,29.8l0-11.5C208,104.4,206.1,101.1,203.8,99.8z"
				/>
			<path class="st5" d="M156.3,88.7l0,35.5c0,2.7,1.9,5.9,4.2,7.3c15.9,9.2,27.4,15.8,43.3,25c2.3,1.3,4.2,0.2,4.2-2.4l0-35.5
				L156.3,88.7z"/>
		</g>
		<path class="st5" d="M176.3,89.8c-1.1-0.6-2-0.1-2,1.2c0,1.3,0.9,2.9,2,3.5c1.1,0.6,2,0.1,2-1.2C178.3,92,177.4,90.4,176.3,89.8z"
			/>
		<path class="st8" d="M169.3,85.8c-1.1-0.6-2-0.1-2,1.2c0,1.3,0.9,2.9,2,3.5c1.1,0.6,2,0.1,2-1.2C171.3,88,170.4,86.4,169.3,85.8z"
			/>
		<path class="st9" d="M162.3,81.7c-1.1-0.6-2-0.1-2,1.2c0,1.3,0.9,2.9,2,3.5c1.1,0.6,2,0.1,2-1.2C164.4,84,163.4,82.4,162.3,81.7z"
			/>
		<polygon class="st7" points="191.8,127.5 191.8,125.7 183.2,120.7 183.2,122.5 		"/>
		<polygon class="st7" points="201.5,131 201.5,128.1 195.2,121.6 201.5,122.4 201.5,119.5 192.5,118.8 192.5,121.3 		"/>
	</g>
	<g>
		<path class="st10" d="M249.9,206.4c1.5,2.5,2.4,5.1,2.4,7.7c0,0.4-0.1,0.7-0.4,1.1c-0.3,0.3-0.8,0.6-1.3,0.8
			c-0.7,0.3-1.5,0.4-2.4,0.3c-0.8,0-1.5-0.2-2.1-0.6c-0.9-0.4-1.3-1-1.2-1.9c-0.2-2.9-1.4-5.7-3.8-8.3c-2.3-2.6-5.5-4.9-9.4-6.6
			c-2.9-1.4-6.1-2.4-9.7-3.2c-3.5-0.7-7.2-1.2-10.9-1.3c-1.3,0-2.2-0.2-2.9-0.5c-0.7-0.3-1.2-0.8-1.4-1.3c-0.2-0.5-0.1-1,0.4-1.5
			c0.3-0.4,0.8-0.7,1.5-0.9c0.6-0.2,1.3-0.3,2-0.3c5.6,0.1,11,0.8,16,2c3.2,0.8,6.3,1.8,9.1,3.1c2.8,1.3,5.3,2.7,7.4,4.3
			C246.1,201.6,248.3,203.9,249.9,206.4z"/>
		<path class="st10" d="M213.5,214.6c0,0.5-0.2,1-0.6,1.4c-0.7,0.6-1.7,1-3,1.2c-1.4,0.2-2.5,0-3.5-0.4c-1.1-0.4-1.7-1.1-1.8-1.9
			c-0.2-0.8,0.2-1.5,1.2-2c1-0.6,2.2-0.9,3.7-0.8c1.5,0.1,2.6,0.4,3.3,1.1C213.3,213.7,213.5,214.1,213.5,214.6z"/>
		<path class="st10" d="M219.2,215.7c-0.2-0.4-0.2-0.7-0.1-1.1c0-1.3-0.8-2.5-2.3-3.6c-1.5-1.1-3.4-1.7-5.6-2
			c-0.4-0.1-1.1-0.1-2.3-0.1c-1,0-1.7-0.1-2.3-0.3c-0.7-0.2-1.2-0.5-1.6-0.9c-0.4-0.4-0.5-0.9-0.3-1.3c0.1-0.4,0.5-0.8,1.1-1.2
			c0.6-0.3,1.3-0.5,2.2-0.5c2.9-0.1,5.7,0.2,8.5,0.9c2.8,0.7,5,1.8,6.7,3.2c1.2,0.9,2,1.9,2.7,3c0.6,1.1,0.8,2.3,0.7,3.4
			c0,0.3-0.2,0.7-0.5,1c-0.3,0.3-0.7,0.5-1.1,0.7c-0.7,0.3-1.5,0.4-2.4,0.4c-0.9-0.1-1.6-0.2-2.3-0.5
			C219.8,216.5,219.4,216.1,219.2,215.7z"/>
		<path class="st10" d="M206.6,197.9c0.8-0.5,2-0.6,3.6-0.5c4.4,0.1,8.6,0.7,12.7,1.9c4,1.2,7.4,2.8,10.1,4.8
			c1.7,1.3,3.1,2.8,4.2,4.4c1.1,1.6,1.7,3.2,1.9,4.9c0.1,0.8,0.1,1.2,0.1,1.3c0,0.5-0.2,0.9-0.7,1.2c-0.6,0.5-1.4,0.8-2.4,0.9
			c-1.1,0.1-2.1,0-2.8-0.4c-0.5-0.2-0.9-0.5-1.2-0.9c-0.2-0.4-0.4-0.7-0.4-1.1c-0.1-1.7-0.7-3.3-1.8-4.8c-1.2-1.6-2.8-2.9-4.8-4.1
			c-2-1.2-4.4-2.1-7.1-2.8c-2.7-0.7-5.5-1-8.3-1c-1.4,0-2.4-0.2-3.1-0.7c-0.7-0.4-1.1-0.9-1-1.6
			C205.4,198.8,205.8,198.3,206.6,197.9z"/>
	</g>
	<path class="st11" d="M180.6,177c3.3-1.8,7.5-2.6,12.7-2.4c5.2,0.3,9.7,1.7,13.7,4c0.6,0.3,1.1,0.6,1.6,0.8l-29.9,17.2l-12.8-7.4
		l9.3-5.4l-33.5-1v0.2h-0.4l0.5,0.7l0.3,19.2l9.3-5.4l12.8,7.4l-29.6,17.1c-1.6-0.6-3-1.2-4.4-2c-4.8-2.9-7.6-6.1-8.3-9.8
		c-0.7-3.7,1-6.7,5.1-9c1.7-1,3.7-1.7,5.9-2.2c-3.3-2.9-5.2-6-5.8-9.5c-1-5.3,1.5-9.7,7.4-13.1c5.9-3.4,13.5-4.9,22.7-4.3
		c8.2,0.5,15.6,2.4,22.2,5.8C179.8,177.6,180.2,177.3,180.6,177z"/>
	<g>
		<polygon class="st12" points="279,165.8 251.1,149.7 251,149.7 250.9,149.6 250.8,149.6 250.7,149.6 250.6,149.6 250.4,149.7
			250.3,149.7 250.2,149.8 225.2,164.2 225,164.3 224.9,164.4 224.8,164.5 224.7,164.6 224.5,164.8 224.4,164.9 224.3,165.1
			224.2,165.2 252.1,181.3 252.2,181.2 252.3,181 252.4,180.9 252.5,180.7 252.7,180.6 252.8,180.5 252.9,180.4 253.1,180.3
			278,165.9 278.2,165.8 278.3,165.8 278.4,165.7 278.6,165.7 278.7,165.7 278.8,165.7 278.9,165.8 		"/>
		<path class="st5" d="M279.4,166.7c0-0.4-0.2-0.7-0.4-0.9c-0.2-0.1-0.6-0.1-1,0.1l-25,14.4c-0.4,0.2-0.7,0.6-1,1l0,0
			c-0.2,0.4-0.4,0.9-0.4,1.3v8.5c0,0.4,0.2,0.7,0.4,0.9c0.2,0.1,0.6,0.1,1-0.1l25-14.4c0.4-0.2,0.7-0.6,1-1l0,0
			c0.2-0.4,0.4-0.9,0.4-1.3V166.7z"/>
		<g>
			<polygon class="st13" points="278.3,170.7 277.9,170.5 275.5,171.8 275.9,172.1 			"/>
			<polygon class="st14" points="275.9,172.1 275.5,171.8 275.5,174.6 275.9,174.9 			"/>
			<polygon class="st15" points="275.9,174.9 278.3,173.5 278.3,170.7 275.9,172.1 			"/>
		</g>
		<path class="st16" d="M254.5,185.7c-0.2,0.1-0.3,0-0.3-0.2c0-0.2,0.2-0.5,0.3-0.6l14.4-8.3c0.2-0.1,0.3,0,0.3,0.2
			c0,0.2-0.2,0.5-0.3,0.6L254.5,185.7z"/>
		<polygon class="st17" points="252.1,181.3 224.2,165.2 224.2,165.2 224.1,165.4 224.1,165.6 224,165.7 223.9,165.9 223.9,166.1
			223.9,166.2 223.8,166.4 223.8,166.6 223.8,175.1 223.8,175.2 223.9,175.4 223.9,175.5 223.9,175.6 224,175.7 224.1,175.8
			224.1,175.9 224.2,176 252.1,192.1 252,192 251.9,191.9 251.9,191.8 251.8,191.7 251.8,191.6 251.7,191.5 251.7,191.3
			251.7,191.2 251.7,182.7 251.7,182.5 251.7,182.3 251.8,182.2 251.8,182 251.9,181.8 251.9,181.6 252,181.5 252.1,181.3 		"/>
		<path class="st18" d="M268.2,177l0.7-0.4c0.2-0.1,0.3,0,0.3,0.2c0,0.2-0.2,0.5-0.3,0.6l0,0L268.2,177z"/>
		<polygon class="st19" points="274.8,172.7 274.4,172.5 272,173.9 272.4,174.1 		"/>
		<polygon class="st20" points="272.4,174.1 272,173.9 272,176.6 272.4,176.9 		"/>
		<polygon class="st21" points="272.4,176.9 274.8,175.5 274.8,172.7 272.4,174.1 		"/>
		<polygon class="st12" points="279,152.7 251.1,136.6 251,136.5 250.9,136.5 250.8,136.5 250.7,136.5 250.6,136.5 250.4,136.6
			250.3,136.6 250.2,136.7 225.2,151.1 225,151.2 224.9,151.3 224.8,151.4 224.7,151.5 224.5,151.7 224.4,151.8 224.3,152
			224.2,152.1 252.1,168.2 252.2,168.1 252.3,167.9 252.4,167.8 252.5,167.6 252.7,167.5 252.8,167.4 252.9,167.3 253.1,167.2
			278,152.8 278.2,152.7 278.3,152.7 278.4,152.6 278.6,152.6 278.7,152.6 278.8,152.6 278.9,152.6 		"/>
		<path class="st5" d="M279.4,153.6c0-0.4-0.2-0.7-0.4-0.9c-0.2-0.1-0.6-0.1-1,0.1l-25,14.4c-0.4,0.2-0.7,0.6-1,1l0,0
			c-0.2,0.4-0.4,0.9-0.4,1.3v8.5c0,0.4,0.2,0.7,0.4,0.9c0.2,0.1,0.6,0.1,1-0.1l25-14.4c0.4-0.2,0.7-0.6,1-1l0,0
			c0.2-0.4,0.4-0.9,0.4-1.3V153.6z"/>
		<g>
			<polygon class="st13" points="278.3,157.6 277.9,157.3 275.5,158.7 275.9,159 			"/>
			<polygon class="st14" points="275.9,159 275.5,158.7 275.5,161.5 275.9,161.7 			"/>
			<polygon class="st15" points="275.9,161.7 278.3,160.4 278.3,157.6 275.9,159 			"/>
		</g>
		<path class="st16" d="M254.5,172.6c-0.2,0.1-0.3,0-0.3-0.2c0-0.2,0.2-0.5,0.3-0.6l14.4-8.3c0.2-0.1,0.3,0,0.3,0.2
			c0,0.2-0.2,0.5-0.3,0.6L254.5,172.6z"/>
		<polygon class="st17" points="252.1,168.2 224.2,152.1 224.2,152.1 224.1,152.3 224.1,152.4 224,152.6 223.9,152.8 223.9,152.9
			223.9,153.1 223.8,153.3 223.8,153.4 223.8,162 223.8,162.1 223.9,162.3 223.9,162.4 223.9,162.5 224,162.6 224.1,162.7
			224.1,162.8 224.2,162.9 252.1,179 252,178.9 251.9,178.8 251.9,178.7 251.8,178.6 251.8,178.5 251.7,178.4 251.7,178.2
			251.7,178.1 251.7,169.5 251.7,169.4 251.7,169.2 251.8,169 251.8,168.9 251.9,168.7 251.9,168.5 252,168.4 252.1,168.2 		"/>
		<path class="st18" d="M268.2,163.9l0.7-0.4c0.2-0.1,0.3,0,0.3,0.2c0,0.2-0.2,0.5-0.3,0.6l0,0L268.2,163.9z"/>
		<polygon class="st19" points="274.8,159.6 274.4,159.4 272,160.7 272.4,161 		"/>
		<polygon class="st20" points="272.4,161 272,160.7 272,163.5 272.4,163.8 		"/>
		<polygon class="st21" points="272.4,163.8 274.8,162.4 274.8,159.6 272.4,161 		"/>
		<polygon class="st22" points="279,139.3 251.1,123.2 251,123.2 250.9,123.2 250.8,123.1 250.7,123.1 250.6,123.2 250.4,123.2
			250.3,123.2 250.2,123.3 225.2,137.7 225,137.8 224.9,137.9 224.8,138 224.7,138.2 224.5,138.3 224.4,138.4 224.3,138.6
			224.2,138.7 252.1,154.8 252.2,154.7 252.3,154.5 252.4,154.4 252.5,154.3 252.7,154.1 252.8,154 252.9,153.9 253.1,153.8
			278,139.4 278.2,139.3 278.3,139.3 278.4,139.3 278.6,139.2 278.7,139.2 278.8,139.3 278.9,139.3 		"/>
		<path class="st5" d="M279.4,140.2c0-0.4-0.2-0.7-0.4-0.9c-0.2-0.1-0.6-0.1-1,0.1l-25,14.4c-0.4,0.2-0.7,0.6-1,1l0,0
			c-0.2,0.4-0.4,0.9-0.4,1.3v8.5c0,0.4,0.2,0.7,0.4,0.9c0.2,0.1,0.6,0.1,1-0.1l25-14.4c0.4-0.2,0.7-0.6,1-1l0,0
			c0.2-0.4,0.4-0.9,0.4-1.3V140.2z"/>
		<g>
			<polygon class="st13" points="278.3,144.2 277.9,144 275.5,145.4 275.9,145.6 			"/>
			<polygon class="st14" points="275.9,145.6 275.5,145.4 275.5,148.2 275.9,148.4 			"/>
			<polygon class="st15" points="275.9,148.4 278.3,147 278.3,144.2 275.9,145.6 			"/>
		</g>
		<path class="st16" d="M254.5,159.2c-0.2,0.1-0.3,0-0.3-0.2c0-0.2,0.2-0.5,0.3-0.6l14.4-8.3c0.2-0.1,0.3,0,0.3,0.2
			c0,0.2-0.2,0.5-0.3,0.6L254.5,159.2z"/>
		<polygon class="st17" points="252.1,154.8 224.2,138.7 224.2,138.7 224.1,138.9 224.1,139.1 224,139.2 223.9,139.4 223.9,139.6
			223.9,139.7 223.8,139.9 223.8,140.1 223.8,148.6 223.8,148.8 223.9,148.9 223.9,149 223.9,149.2 224,149.3 224.1,149.3
			224.1,149.4 224.2,149.5 252.1,165.6 252,165.5 251.9,165.4 251.9,165.4 251.8,165.3 251.8,165.1 251.7,165 251.7,164.9
			251.7,164.7 251.7,156.2 251.7,156 251.7,155.8 251.8,155.7 251.8,155.5 251.9,155.3 251.9,155.2 252,155 252.1,154.8 		"/>
		<path class="st18" d="M268.2,150.5l0.7-0.4c0.2-0.1,0.3,0,0.3,0.2c0,0.2-0.2,0.5-0.3,0.6l0,0L268.2,150.5z"/>
		<polygon class="st19" points="274.8,146.2 274.4,146 272,147.4 272.4,147.6 		"/>
		<polygon class="st20" points="272.4,147.6 272,147.4 272,150.2 272.4,150.4 		"/>
		<polygon class="st21" points="272.4,150.4 274.8,149 274.8,146.2 272.4,147.6 		"/>
	</g>
</g>
</svg>
